%TF.GenerationSoftware,KiCad,Pcbnew,(6.0.8)*%
%TF.CreationDate,2023-05-16T00:54:07+01:00*%
%TF.ProjectId,photodiode,70686f74-6f64-4696-9f64-652e6b696361,rev?*%
%TF.SameCoordinates,Original*%
%TF.FileFunction,Drillmap*%
%TF.FilePolarity,Positive*%
%FSLAX45Y45*%
G04 Gerber Fmt 4.5, Leading zero omitted, Abs format (unit mm)*
G04 Created by KiCad (PCBNEW (6.0.8)) date 2023-05-16 00:54:07*
%MOMM*%
%LPD*%
G01*
G04 APERTURE LIST*
%ADD10C,0.100000*%
%ADD11C,0.200000*%
G04 APERTURE END LIST*
D10*
X13900000Y-12200000D02*
X11800000Y-12200000D01*
X11800000Y-12200000D02*
X11800000Y-7200000D01*
X13900000Y-7200000D02*
X13900000Y-12200000D01*
X11800000Y-7200000D02*
X13900000Y-7200000D01*
D11*
X12052619Y-12515476D02*
X12052619Y-12315476D01*
X12100238Y-12315476D01*
X12128809Y-12325000D01*
X12147857Y-12344048D01*
X12157381Y-12363095D01*
X12166905Y-12401190D01*
X12166905Y-12429762D01*
X12157381Y-12467857D01*
X12147857Y-12486905D01*
X12128809Y-12505952D01*
X12100238Y-12515476D01*
X12052619Y-12515476D01*
X12252619Y-12515476D02*
X12252619Y-12382143D01*
X12252619Y-12420238D02*
X12262143Y-12401190D01*
X12271667Y-12391667D01*
X12290714Y-12382143D01*
X12309762Y-12382143D01*
X12376428Y-12515476D02*
X12376428Y-12382143D01*
X12376428Y-12315476D02*
X12366905Y-12325000D01*
X12376428Y-12334524D01*
X12385952Y-12325000D01*
X12376428Y-12315476D01*
X12376428Y-12334524D01*
X12500238Y-12515476D02*
X12481190Y-12505952D01*
X12471667Y-12486905D01*
X12471667Y-12315476D01*
X12605000Y-12515476D02*
X12585952Y-12505952D01*
X12576428Y-12486905D01*
X12576428Y-12315476D01*
X12833571Y-12515476D02*
X12833571Y-12315476D01*
X12900238Y-12458333D01*
X12966905Y-12315476D01*
X12966905Y-12515476D01*
X13147857Y-12515476D02*
X13147857Y-12410714D01*
X13138333Y-12391667D01*
X13119286Y-12382143D01*
X13081190Y-12382143D01*
X13062143Y-12391667D01*
X13147857Y-12505952D02*
X13128809Y-12515476D01*
X13081190Y-12515476D01*
X13062143Y-12505952D01*
X13052619Y-12486905D01*
X13052619Y-12467857D01*
X13062143Y-12448809D01*
X13081190Y-12439286D01*
X13128809Y-12439286D01*
X13147857Y-12429762D01*
X13243095Y-12382143D02*
X13243095Y-12582143D01*
X13243095Y-12391667D02*
X13262143Y-12382143D01*
X13300238Y-12382143D01*
X13319286Y-12391667D01*
X13328809Y-12401190D01*
X13338333Y-12420238D01*
X13338333Y-12477381D01*
X13328809Y-12496428D01*
X13319286Y-12505952D01*
X13300238Y-12515476D01*
X13262143Y-12515476D01*
X13243095Y-12505952D01*
X13424048Y-12496428D02*
X13433571Y-12505952D01*
X13424048Y-12515476D01*
X13414524Y-12505952D01*
X13424048Y-12496428D01*
X13424048Y-12515476D01*
X13424048Y-12391667D02*
X13433571Y-12401190D01*
X13424048Y-12410714D01*
X13414524Y-12401190D01*
X13424048Y-12391667D01*
X13424048Y-12410714D01*
M02*
