%TF.GenerationSoftware,KiCad,Pcbnew,(6.0.8)*%
%TF.CreationDate,2023-05-16T00:54:05+01:00*%
%TF.ProjectId,photodiode,70686f74-6f64-4696-9f64-652e6b696361,rev?*%
%TF.SameCoordinates,Original*%
%TF.FileFunction,Legend,Top*%
%TF.FilePolarity,Positive*%
%FSLAX46Y46*%
G04 Gerber Fmt 4.6, Leading zero omitted, Abs format (unit mm)*
G04 Created by KiCad (PCBNEW (6.0.8)) date 2023-05-16 00:54:05*
%MOMM*%
%LPD*%
G01*
G04 APERTURE LIST*
%ADD10C,0.254000*%
%ADD11C,0.150000*%
%ADD12C,0.100000*%
%ADD13C,0.200000*%
%ADD14C,0.120000*%
G04 APERTURE END LIST*
D10*
%TO.C,Q1*%
X123879047Y-79695476D02*
X123758095Y-79635000D01*
X123637142Y-79514047D01*
X123455714Y-79332619D01*
X123334761Y-79272142D01*
X123213809Y-79272142D01*
X123274285Y-79574523D02*
X123153333Y-79514047D01*
X123032380Y-79393095D01*
X122971904Y-79151190D01*
X122971904Y-78727857D01*
X123032380Y-78485952D01*
X123153333Y-78365000D01*
X123274285Y-78304523D01*
X123516190Y-78304523D01*
X123637142Y-78365000D01*
X123758095Y-78485952D01*
X123818571Y-78727857D01*
X123818571Y-79151190D01*
X123758095Y-79393095D01*
X123637142Y-79514047D01*
X123516190Y-79574523D01*
X123274285Y-79574523D01*
X125028095Y-79574523D02*
X124302380Y-79574523D01*
X124665238Y-79574523D02*
X124665238Y-78304523D01*
X124544285Y-78485952D01*
X124423333Y-78606904D01*
X124302380Y-78667380D01*
%TO.C,IC2*%
X130580238Y-108382523D02*
X130580238Y-107112523D01*
X131910714Y-108261571D02*
X131850238Y-108322047D01*
X131668809Y-108382523D01*
X131547857Y-108382523D01*
X131366428Y-108322047D01*
X131245476Y-108201095D01*
X131185000Y-108080142D01*
X131124523Y-107838238D01*
X131124523Y-107656809D01*
X131185000Y-107414904D01*
X131245476Y-107293952D01*
X131366428Y-107173000D01*
X131547857Y-107112523D01*
X131668809Y-107112523D01*
X131850238Y-107173000D01*
X131910714Y-107233476D01*
X132394523Y-107233476D02*
X132455000Y-107173000D01*
X132575952Y-107112523D01*
X132878333Y-107112523D01*
X132999285Y-107173000D01*
X133059761Y-107233476D01*
X133120238Y-107354428D01*
X133120238Y-107475380D01*
X133059761Y-107656809D01*
X132334047Y-108382523D01*
X133120238Y-108382523D01*
%TO.C,IC1*%
X132760238Y-86574523D02*
X132760238Y-85304523D01*
X134090714Y-86453571D02*
X134030238Y-86514047D01*
X133848809Y-86574523D01*
X133727857Y-86574523D01*
X133546428Y-86514047D01*
X133425476Y-86393095D01*
X133365000Y-86272142D01*
X133304523Y-86030238D01*
X133304523Y-85848809D01*
X133365000Y-85606904D01*
X133425476Y-85485952D01*
X133546428Y-85365000D01*
X133727857Y-85304523D01*
X133848809Y-85304523D01*
X134030238Y-85365000D01*
X134090714Y-85425476D01*
X135300238Y-86574523D02*
X134574523Y-86574523D01*
X134937380Y-86574523D02*
X134937380Y-85304523D01*
X134816428Y-85485952D01*
X134695476Y-85606904D01*
X134574523Y-85667380D01*
D11*
%TO.C,C7*%
X137357142Y-90166666D02*
X137404761Y-90214285D01*
X137452380Y-90357142D01*
X137452380Y-90452380D01*
X137404761Y-90595238D01*
X137309523Y-90690476D01*
X137214285Y-90738095D01*
X137023809Y-90785714D01*
X136880952Y-90785714D01*
X136690476Y-90738095D01*
X136595238Y-90690476D01*
X136500000Y-90595238D01*
X136452380Y-90452380D01*
X136452380Y-90357142D01*
X136500000Y-90214285D01*
X136547619Y-90166666D01*
X136452380Y-89833333D02*
X136452380Y-89166666D01*
X137452380Y-89595238D01*
%TO.C,C3*%
X135658333Y-77327142D02*
X135610714Y-77374761D01*
X135467857Y-77422380D01*
X135372619Y-77422380D01*
X135229761Y-77374761D01*
X135134523Y-77279523D01*
X135086904Y-77184285D01*
X135039285Y-76993809D01*
X135039285Y-76850952D01*
X135086904Y-76660476D01*
X135134523Y-76565238D01*
X135229761Y-76470000D01*
X135372619Y-76422380D01*
X135467857Y-76422380D01*
X135610714Y-76470000D01*
X135658333Y-76517619D01*
X135991666Y-76422380D02*
X136610714Y-76422380D01*
X136277380Y-76803333D01*
X136420238Y-76803333D01*
X136515476Y-76850952D01*
X136563095Y-76898571D01*
X136610714Y-76993809D01*
X136610714Y-77231904D01*
X136563095Y-77327142D01*
X136515476Y-77374761D01*
X136420238Y-77422380D01*
X136134523Y-77422380D01*
X136039285Y-77374761D01*
X135991666Y-77327142D01*
%TO.C,J1*%
X123371666Y-74452380D02*
X123371666Y-75166666D01*
X123324047Y-75309523D01*
X123228809Y-75404761D01*
X123085952Y-75452380D01*
X122990714Y-75452380D01*
X124371666Y-75452380D02*
X123800238Y-75452380D01*
X124085952Y-75452380D02*
X124085952Y-74452380D01*
X123990714Y-74595238D01*
X123895476Y-74690476D01*
X123800238Y-74738095D01*
%TO.C,R2*%
X120452380Y-111166666D02*
X119976190Y-111500000D01*
X120452380Y-111738095D02*
X119452380Y-111738095D01*
X119452380Y-111357142D01*
X119500000Y-111261904D01*
X119547619Y-111214285D01*
X119642857Y-111166666D01*
X119785714Y-111166666D01*
X119880952Y-111214285D01*
X119928571Y-111261904D01*
X119976190Y-111357142D01*
X119976190Y-111738095D01*
X119547619Y-110785714D02*
X119500000Y-110738095D01*
X119452380Y-110642857D01*
X119452380Y-110404761D01*
X119500000Y-110309523D01*
X119547619Y-110261904D01*
X119642857Y-110214285D01*
X119738095Y-110214285D01*
X119880952Y-110261904D01*
X120452380Y-110833333D01*
X120452380Y-110214285D01*
%TO.C,R3*%
X132833333Y-119452380D02*
X132500000Y-118976190D01*
X132261904Y-119452380D02*
X132261904Y-118452380D01*
X132642857Y-118452380D01*
X132738095Y-118500000D01*
X132785714Y-118547619D01*
X132833333Y-118642857D01*
X132833333Y-118785714D01*
X132785714Y-118880952D01*
X132738095Y-118928571D01*
X132642857Y-118976190D01*
X132261904Y-118976190D01*
X133166666Y-118452380D02*
X133785714Y-118452380D01*
X133452380Y-118833333D01*
X133595238Y-118833333D01*
X133690476Y-118880952D01*
X133738095Y-118928571D01*
X133785714Y-119023809D01*
X133785714Y-119261904D01*
X133738095Y-119357142D01*
X133690476Y-119404761D01*
X133595238Y-119452380D01*
X133309523Y-119452380D01*
X133214285Y-119404761D01*
X133166666Y-119357142D01*
%TO.C,C2*%
X131833333Y-80357142D02*
X131785714Y-80404761D01*
X131642857Y-80452380D01*
X131547619Y-80452380D01*
X131404761Y-80404761D01*
X131309523Y-80309523D01*
X131261904Y-80214285D01*
X131214285Y-80023809D01*
X131214285Y-79880952D01*
X131261904Y-79690476D01*
X131309523Y-79595238D01*
X131404761Y-79500000D01*
X131547619Y-79452380D01*
X131642857Y-79452380D01*
X131785714Y-79500000D01*
X131833333Y-79547619D01*
X132214285Y-79547619D02*
X132261904Y-79500000D01*
X132357142Y-79452380D01*
X132595238Y-79452380D01*
X132690476Y-79500000D01*
X132738095Y-79547619D01*
X132785714Y-79642857D01*
X132785714Y-79738095D01*
X132738095Y-79880952D01*
X132166666Y-80452380D01*
X132785714Y-80452380D01*
%TO.C,C6*%
X122833333Y-100357142D02*
X122785714Y-100404761D01*
X122642857Y-100452380D01*
X122547619Y-100452380D01*
X122404761Y-100404761D01*
X122309523Y-100309523D01*
X122261904Y-100214285D01*
X122214285Y-100023809D01*
X122214285Y-99880952D01*
X122261904Y-99690476D01*
X122309523Y-99595238D01*
X122404761Y-99500000D01*
X122547619Y-99452380D01*
X122642857Y-99452380D01*
X122785714Y-99500000D01*
X122833333Y-99547619D01*
X123690476Y-99452380D02*
X123500000Y-99452380D01*
X123404761Y-99500000D01*
X123357142Y-99547619D01*
X123261904Y-99690476D01*
X123214285Y-99880952D01*
X123214285Y-100261904D01*
X123261904Y-100357142D01*
X123309523Y-100404761D01*
X123404761Y-100452380D01*
X123595238Y-100452380D01*
X123690476Y-100404761D01*
X123738095Y-100357142D01*
X123785714Y-100261904D01*
X123785714Y-100023809D01*
X123738095Y-99928571D01*
X123690476Y-99880952D01*
X123595238Y-99833333D01*
X123404761Y-99833333D01*
X123309523Y-99880952D01*
X123261904Y-99928571D01*
X123214285Y-100023809D01*
%TO.C,H1*%
X131238095Y-88152380D02*
X131238095Y-87152380D01*
X131238095Y-87628571D02*
X131809523Y-87628571D01*
X131809523Y-88152380D02*
X131809523Y-87152380D01*
X132809523Y-88152380D02*
X132238095Y-88152380D01*
X132523809Y-88152380D02*
X132523809Y-87152380D01*
X132428571Y-87295238D01*
X132333333Y-87390476D01*
X132238095Y-87438095D01*
%TO.C,C1*%
X119833333Y-85357142D02*
X119785714Y-85404761D01*
X119642857Y-85452380D01*
X119547619Y-85452380D01*
X119404761Y-85404761D01*
X119309523Y-85309523D01*
X119261904Y-85214285D01*
X119214285Y-85023809D01*
X119214285Y-84880952D01*
X119261904Y-84690476D01*
X119309523Y-84595238D01*
X119404761Y-84500000D01*
X119547619Y-84452380D01*
X119642857Y-84452380D01*
X119785714Y-84500000D01*
X119833333Y-84547619D01*
X120785714Y-85452380D02*
X120214285Y-85452380D01*
X120500000Y-85452380D02*
X120500000Y-84452380D01*
X120404761Y-84595238D01*
X120309523Y-84690476D01*
X120214285Y-84738095D01*
%TO.C,R1*%
X123833333Y-89127380D02*
X123500000Y-88651190D01*
X123261904Y-89127380D02*
X123261904Y-88127380D01*
X123642857Y-88127380D01*
X123738095Y-88175000D01*
X123785714Y-88222619D01*
X123833333Y-88317857D01*
X123833333Y-88460714D01*
X123785714Y-88555952D01*
X123738095Y-88603571D01*
X123642857Y-88651190D01*
X123261904Y-88651190D01*
X124785714Y-89127380D02*
X124214285Y-89127380D01*
X124500000Y-89127380D02*
X124500000Y-88127380D01*
X124404761Y-88270238D01*
X124309523Y-88365476D01*
X124214285Y-88413095D01*
%TO.C,C5*%
X132833333Y-116357142D02*
X132785714Y-116404761D01*
X132642857Y-116452380D01*
X132547619Y-116452380D01*
X132404761Y-116404761D01*
X132309523Y-116309523D01*
X132261904Y-116214285D01*
X132214285Y-116023809D01*
X132214285Y-115880952D01*
X132261904Y-115690476D01*
X132309523Y-115595238D01*
X132404761Y-115500000D01*
X132547619Y-115452380D01*
X132642857Y-115452380D01*
X132785714Y-115500000D01*
X132833333Y-115547619D01*
X133738095Y-115452380D02*
X133261904Y-115452380D01*
X133214285Y-115928571D01*
X133261904Y-115880952D01*
X133357142Y-115833333D01*
X133595238Y-115833333D01*
X133690476Y-115880952D01*
X133738095Y-115928571D01*
X133785714Y-116023809D01*
X133785714Y-116261904D01*
X133738095Y-116357142D01*
X133690476Y-116404761D01*
X133595238Y-116452380D01*
X133357142Y-116452380D01*
X133261904Y-116404761D01*
X133214285Y-116357142D01*
%TO.C,C4*%
X123357142Y-111166666D02*
X123404761Y-111214285D01*
X123452380Y-111357142D01*
X123452380Y-111452380D01*
X123404761Y-111595238D01*
X123309523Y-111690476D01*
X123214285Y-111738095D01*
X123023809Y-111785714D01*
X122880952Y-111785714D01*
X122690476Y-111738095D01*
X122595238Y-111690476D01*
X122500000Y-111595238D01*
X122452380Y-111452380D01*
X122452380Y-111357142D01*
X122500000Y-111214285D01*
X122547619Y-111166666D01*
X122785714Y-110309523D02*
X123452380Y-110309523D01*
X122404761Y-110547619D02*
X123119047Y-110785714D01*
X123119047Y-110166666D01*
D12*
%TO.C,Q1*%
X123350000Y-83875000D02*
X123350000Y-83875000D01*
X123350000Y-83775000D02*
X123350000Y-83775000D01*
X123350000Y-83875000D02*
G75*
G03*
X123350000Y-83775000I0J50000D01*
G01*
X123350000Y-83775000D02*
G75*
G03*
X123350000Y-83875000I0J-50000D01*
G01*
%TO.C,IC2*%
X129035000Y-103045000D02*
X135555000Y-103045000D01*
X135555000Y-103045000D02*
X135555000Y-112571000D01*
X135555000Y-112571000D02*
X129035000Y-112571000D01*
X129035000Y-112571000D02*
X129035000Y-103045000D01*
D13*
X125695000Y-104008000D02*
X125695000Y-104008000D01*
X125895000Y-104008000D02*
X125895000Y-104008000D01*
X125695000Y-104008000D02*
G75*
G03*
X125895000Y-104008000I100000J0D01*
G01*
X125895000Y-104008000D02*
G75*
G03*
X125695000Y-104008000I-100000J0D01*
G01*
%TO.C,IC1*%
X135575000Y-81300000D02*
X136225000Y-81300000D01*
X136225000Y-81300000D02*
X136225000Y-84200000D01*
X136225000Y-84200000D02*
X135575000Y-84200000D01*
X135575000Y-84200000D02*
X135575000Y-81300000D01*
X133975000Y-81250000D02*
X135225000Y-81250000D01*
D14*
%TO.C,C7*%
X136302500Y-87298752D02*
X136302500Y-86776248D01*
X137772500Y-87298752D02*
X137772500Y-86776248D01*
%TO.C,C3*%
X135563748Y-79385000D02*
X136086252Y-79385000D01*
X135563748Y-77915000D02*
X136086252Y-77915000D01*
%TO.C,J1*%
X132885000Y-76330000D02*
X132885000Y-73670000D01*
X125145000Y-73670000D02*
X126475000Y-73670000D01*
X125145000Y-75000000D02*
X125145000Y-73670000D01*
X127745000Y-73670000D02*
X132885000Y-73670000D01*
X127745000Y-76330000D02*
X132885000Y-76330000D01*
X127745000Y-76330000D02*
X127745000Y-73670000D01*
%TO.C,R2*%
X120735000Y-108227064D02*
X120735000Y-107772936D01*
X119265000Y-108227064D02*
X119265000Y-107772936D01*
%TO.C,R3*%
X136227064Y-118265000D02*
X135772936Y-118265000D01*
X136227064Y-119735000D02*
X135772936Y-119735000D01*
%TO.C,C2*%
X131052500Y-82388748D02*
X131052500Y-82911252D01*
X132522500Y-82388748D02*
X132522500Y-82911252D01*
%TO.C,C6*%
X126223752Y-99265000D02*
X125701248Y-99265000D01*
X126223752Y-100735000D02*
X125701248Y-100735000D01*
%TO.C,C1*%
X119265000Y-81801248D02*
X119265000Y-82323752D01*
X120735000Y-81801248D02*
X120735000Y-82323752D01*
%TO.C,R1*%
X124227064Y-87760000D02*
X123772936Y-87760000D01*
X124227064Y-86290000D02*
X123772936Y-86290000D01*
%TO.C,C5*%
X136223752Y-114885000D02*
X135701248Y-114885000D01*
X136223752Y-116355000D02*
X135701248Y-116355000D01*
%TO.C,C4*%
X123735000Y-108298752D02*
X123735000Y-107776248D01*
X122265000Y-108298752D02*
X122265000Y-107776248D01*
%TD*%
M02*
