%TF.GenerationSoftware,KiCad,Pcbnew,(6.0.8)*%
%TF.CreationDate,2023-05-16T00:54:07+01:00*%
%TF.ProjectId,photodiode,70686f74-6f64-4696-9f64-652e6b696361,rev?*%
%TF.SameCoordinates,Original*%
%TF.FileFunction,Drillmap*%
%TF.FilePolarity,Positive*%
%FSLAX45Y45*%
G04 Gerber Fmt 4.5, Leading zero omitted, Abs format (unit mm)*
G04 Created by KiCad (PCBNEW (6.0.8)) date 2023-05-16 00:54:07*
%MOMM*%
%LPD*%
G01*
G04 APERTURE LIST*
%ADD10C,0.100000*%
%ADD11C,0.200000*%
%ADD12C,0.040000*%
%ADD13C,0.430000*%
G04 APERTURE END LIST*
D10*
X13900000Y-12200000D02*
X11800000Y-12200000D01*
X11800000Y-12200000D02*
X11800000Y-7200000D01*
X13900000Y-7200000D02*
X13900000Y-12200000D01*
X11800000Y-7200000D02*
X13900000Y-7200000D01*
D11*
D12*
X12580000Y-9680000D02*
X12620000Y-9720000D01*
X12620000Y-9680000D02*
X12580000Y-9720000D01*
X12670000Y-8292500D02*
X12710000Y-8332500D01*
X12710000Y-8292500D02*
X12670000Y-8332500D01*
X12680000Y-8082500D02*
X12720000Y-8122500D01*
X12720000Y-8082500D02*
X12680000Y-8122500D01*
X12980000Y-8382500D02*
X13020000Y-8422500D01*
X13020000Y-8382500D02*
X12980000Y-8422500D01*
X13081250Y-7681250D02*
X13121250Y-7721250D01*
X13121250Y-7681250D02*
X13081250Y-7721250D01*
X13280000Y-8480000D02*
X13320000Y-8520000D01*
X13320000Y-8480000D02*
X13280000Y-8520000D01*
D10*
X12697500Y-7500000D02*
G75*
G03*
X12697500Y-7500000I-50000J0D01*
G01*
X12951500Y-7500000D02*
G75*
G03*
X12951500Y-7500000I-50000J0D01*
G01*
X13205500Y-7500000D02*
G75*
G03*
X13205500Y-7500000I-50000J0D01*
G01*
D13*
X13200000Y-9085000D02*
X13200000Y-9515000D01*
X12985000Y-9300000D02*
X13415000Y-9300000D01*
D11*
X12052619Y-12515476D02*
X12052619Y-12315476D01*
X12100238Y-12315476D01*
X12128809Y-12325000D01*
X12147857Y-12344048D01*
X12157381Y-12363095D01*
X12166905Y-12401190D01*
X12166905Y-12429762D01*
X12157381Y-12467857D01*
X12147857Y-12486905D01*
X12128809Y-12505952D01*
X12100238Y-12515476D01*
X12052619Y-12515476D01*
X12252619Y-12515476D02*
X12252619Y-12382143D01*
X12252619Y-12420238D02*
X12262143Y-12401190D01*
X12271667Y-12391667D01*
X12290714Y-12382143D01*
X12309762Y-12382143D01*
X12376428Y-12515476D02*
X12376428Y-12382143D01*
X12376428Y-12315476D02*
X12366905Y-12325000D01*
X12376428Y-12334524D01*
X12385952Y-12325000D01*
X12376428Y-12315476D01*
X12376428Y-12334524D01*
X12500238Y-12515476D02*
X12481190Y-12505952D01*
X12471667Y-12486905D01*
X12471667Y-12315476D01*
X12605000Y-12515476D02*
X12585952Y-12505952D01*
X12576428Y-12486905D01*
X12576428Y-12315476D01*
X12833571Y-12515476D02*
X12833571Y-12315476D01*
X12900238Y-12458333D01*
X12966905Y-12315476D01*
X12966905Y-12515476D01*
X13147857Y-12515476D02*
X13147857Y-12410714D01*
X13138333Y-12391667D01*
X13119286Y-12382143D01*
X13081190Y-12382143D01*
X13062143Y-12391667D01*
X13147857Y-12505952D02*
X13128809Y-12515476D01*
X13081190Y-12515476D01*
X13062143Y-12505952D01*
X13052619Y-12486905D01*
X13052619Y-12467857D01*
X13062143Y-12448809D01*
X13081190Y-12439286D01*
X13128809Y-12439286D01*
X13147857Y-12429762D01*
X13243095Y-12382143D02*
X13243095Y-12582143D01*
X13243095Y-12391667D02*
X13262143Y-12382143D01*
X13300238Y-12382143D01*
X13319286Y-12391667D01*
X13328809Y-12401190D01*
X13338333Y-12420238D01*
X13338333Y-12477381D01*
X13328809Y-12496428D01*
X13319286Y-12505952D01*
X13300238Y-12515476D01*
X13262143Y-12515476D01*
X13243095Y-12505952D01*
X13424048Y-12496428D02*
X13433571Y-12505952D01*
X13424048Y-12515476D01*
X13414524Y-12505952D01*
X13424048Y-12496428D01*
X13424048Y-12515476D01*
X13424048Y-12391667D02*
X13433571Y-12401190D01*
X13424048Y-12410714D01*
X13414524Y-12401190D01*
X13424048Y-12391667D01*
X13424048Y-12410714D01*
D12*
X11755000Y-12825000D02*
X11795000Y-12865000D01*
X11795000Y-12825000D02*
X11755000Y-12865000D01*
D11*
X12090714Y-12735476D02*
X12109762Y-12735476D01*
X12128809Y-12745000D01*
X12138333Y-12754524D01*
X12147857Y-12773571D01*
X12157381Y-12811667D01*
X12157381Y-12859286D01*
X12147857Y-12897381D01*
X12138333Y-12916428D01*
X12128809Y-12925952D01*
X12109762Y-12935476D01*
X12090714Y-12935476D01*
X12071667Y-12925952D01*
X12062143Y-12916428D01*
X12052619Y-12897381D01*
X12043095Y-12859286D01*
X12043095Y-12811667D01*
X12052619Y-12773571D01*
X12062143Y-12754524D01*
X12071667Y-12745000D01*
X12090714Y-12735476D01*
X12243095Y-12916428D02*
X12252619Y-12925952D01*
X12243095Y-12935476D01*
X12233571Y-12925952D01*
X12243095Y-12916428D01*
X12243095Y-12935476D01*
X12424048Y-12802143D02*
X12424048Y-12935476D01*
X12376428Y-12725952D02*
X12328809Y-12868809D01*
X12452619Y-12868809D01*
X12566905Y-12735476D02*
X12585952Y-12735476D01*
X12605000Y-12745000D01*
X12614524Y-12754524D01*
X12624048Y-12773571D01*
X12633571Y-12811667D01*
X12633571Y-12859286D01*
X12624048Y-12897381D01*
X12614524Y-12916428D01*
X12605000Y-12925952D01*
X12585952Y-12935476D01*
X12566905Y-12935476D01*
X12547857Y-12925952D01*
X12538333Y-12916428D01*
X12528809Y-12897381D01*
X12519286Y-12859286D01*
X12519286Y-12811667D01*
X12528809Y-12773571D01*
X12538333Y-12754524D01*
X12547857Y-12745000D01*
X12566905Y-12735476D01*
X12757381Y-12735476D02*
X12776428Y-12735476D01*
X12795476Y-12745000D01*
X12805000Y-12754524D01*
X12814524Y-12773571D01*
X12824048Y-12811667D01*
X12824048Y-12859286D01*
X12814524Y-12897381D01*
X12805000Y-12916428D01*
X12795476Y-12925952D01*
X12776428Y-12935476D01*
X12757381Y-12935476D01*
X12738333Y-12925952D01*
X12728809Y-12916428D01*
X12719286Y-12897381D01*
X12709762Y-12859286D01*
X12709762Y-12811667D01*
X12719286Y-12773571D01*
X12728809Y-12754524D01*
X12738333Y-12745000D01*
X12757381Y-12735476D01*
X12909762Y-12935476D02*
X12909762Y-12802143D01*
X12909762Y-12821190D02*
X12919286Y-12811667D01*
X12938333Y-12802143D01*
X12966905Y-12802143D01*
X12985952Y-12811667D01*
X12995476Y-12830714D01*
X12995476Y-12935476D01*
X12995476Y-12830714D02*
X13005000Y-12811667D01*
X13024048Y-12802143D01*
X13052619Y-12802143D01*
X13071667Y-12811667D01*
X13081190Y-12830714D01*
X13081190Y-12935476D01*
X13176428Y-12935476D02*
X13176428Y-12802143D01*
X13176428Y-12821190D02*
X13185952Y-12811667D01*
X13205000Y-12802143D01*
X13233571Y-12802143D01*
X13252619Y-12811667D01*
X13262143Y-12830714D01*
X13262143Y-12935476D01*
X13262143Y-12830714D02*
X13271667Y-12811667D01*
X13290714Y-12802143D01*
X13319286Y-12802143D01*
X13338333Y-12811667D01*
X13347857Y-12830714D01*
X13347857Y-12935476D01*
X13738333Y-12725952D02*
X13566905Y-12983095D01*
X13995476Y-12735476D02*
X14014524Y-12735476D01*
X14033571Y-12745000D01*
X14043095Y-12754524D01*
X14052619Y-12773571D01*
X14062143Y-12811667D01*
X14062143Y-12859286D01*
X14052619Y-12897381D01*
X14043095Y-12916428D01*
X14033571Y-12925952D01*
X14014524Y-12935476D01*
X13995476Y-12935476D01*
X13976428Y-12925952D01*
X13966905Y-12916428D01*
X13957381Y-12897381D01*
X13947857Y-12859286D01*
X13947857Y-12811667D01*
X13957381Y-12773571D01*
X13966905Y-12754524D01*
X13976428Y-12745000D01*
X13995476Y-12735476D01*
X14147857Y-12916428D02*
X14157381Y-12925952D01*
X14147857Y-12935476D01*
X14138333Y-12925952D01*
X14147857Y-12916428D01*
X14147857Y-12935476D01*
X14281190Y-12735476D02*
X14300238Y-12735476D01*
X14319286Y-12745000D01*
X14328809Y-12754524D01*
X14338333Y-12773571D01*
X14347857Y-12811667D01*
X14347857Y-12859286D01*
X14338333Y-12897381D01*
X14328809Y-12916428D01*
X14319286Y-12925952D01*
X14300238Y-12935476D01*
X14281190Y-12935476D01*
X14262143Y-12925952D01*
X14252619Y-12916428D01*
X14243095Y-12897381D01*
X14233571Y-12859286D01*
X14233571Y-12811667D01*
X14243095Y-12773571D01*
X14252619Y-12754524D01*
X14262143Y-12745000D01*
X14281190Y-12735476D01*
X14538333Y-12935476D02*
X14424048Y-12935476D01*
X14481190Y-12935476D02*
X14481190Y-12735476D01*
X14462143Y-12764048D01*
X14443095Y-12783095D01*
X14424048Y-12792619D01*
X14719286Y-12735476D02*
X14624048Y-12735476D01*
X14614524Y-12830714D01*
X14624048Y-12821190D01*
X14643095Y-12811667D01*
X14690714Y-12811667D01*
X14709762Y-12821190D01*
X14719286Y-12830714D01*
X14728809Y-12849762D01*
X14728809Y-12897381D01*
X14719286Y-12916428D01*
X14709762Y-12925952D01*
X14690714Y-12935476D01*
X14643095Y-12935476D01*
X14624048Y-12925952D01*
X14614524Y-12916428D01*
X14795476Y-12735476D02*
X14928809Y-12735476D01*
X14843095Y-12935476D01*
X14995476Y-12735476D02*
X14995476Y-12773571D01*
X15071667Y-12735476D02*
X15071667Y-12773571D01*
X15366905Y-13011667D02*
X15357381Y-13002143D01*
X15338333Y-12973571D01*
X15328809Y-12954524D01*
X15319286Y-12925952D01*
X15309762Y-12878333D01*
X15309762Y-12840238D01*
X15319286Y-12792619D01*
X15328809Y-12764048D01*
X15338333Y-12745000D01*
X15357381Y-12716428D01*
X15366905Y-12706905D01*
X15528809Y-12735476D02*
X15490714Y-12735476D01*
X15471667Y-12745000D01*
X15462143Y-12754524D01*
X15443095Y-12783095D01*
X15433571Y-12821190D01*
X15433571Y-12897381D01*
X15443095Y-12916428D01*
X15452619Y-12925952D01*
X15471667Y-12935476D01*
X15509762Y-12935476D01*
X15528809Y-12925952D01*
X15538333Y-12916428D01*
X15547857Y-12897381D01*
X15547857Y-12849762D01*
X15538333Y-12830714D01*
X15528809Y-12821190D01*
X15509762Y-12811667D01*
X15471667Y-12811667D01*
X15452619Y-12821190D01*
X15443095Y-12830714D01*
X15433571Y-12849762D01*
X15785952Y-12935476D02*
X15785952Y-12735476D01*
X15871667Y-12935476D02*
X15871667Y-12830714D01*
X15862143Y-12811667D01*
X15843095Y-12802143D01*
X15814524Y-12802143D01*
X15795476Y-12811667D01*
X15785952Y-12821190D01*
X15995476Y-12935476D02*
X15976428Y-12925952D01*
X15966905Y-12916428D01*
X15957381Y-12897381D01*
X15957381Y-12840238D01*
X15966905Y-12821190D01*
X15976428Y-12811667D01*
X15995476Y-12802143D01*
X16024048Y-12802143D01*
X16043095Y-12811667D01*
X16052619Y-12821190D01*
X16062143Y-12840238D01*
X16062143Y-12897381D01*
X16052619Y-12916428D01*
X16043095Y-12925952D01*
X16024048Y-12935476D01*
X15995476Y-12935476D01*
X16176428Y-12935476D02*
X16157381Y-12925952D01*
X16147857Y-12906905D01*
X16147857Y-12735476D01*
X16328809Y-12925952D02*
X16309762Y-12935476D01*
X16271667Y-12935476D01*
X16252619Y-12925952D01*
X16243095Y-12906905D01*
X16243095Y-12830714D01*
X16252619Y-12811667D01*
X16271667Y-12802143D01*
X16309762Y-12802143D01*
X16328809Y-12811667D01*
X16338333Y-12830714D01*
X16338333Y-12849762D01*
X16243095Y-12868809D01*
X16414524Y-12925952D02*
X16433571Y-12935476D01*
X16471667Y-12935476D01*
X16490714Y-12925952D01*
X16500238Y-12906905D01*
X16500238Y-12897381D01*
X16490714Y-12878333D01*
X16471667Y-12868809D01*
X16443095Y-12868809D01*
X16424048Y-12859286D01*
X16414524Y-12840238D01*
X16414524Y-12830714D01*
X16424048Y-12811667D01*
X16443095Y-12802143D01*
X16471667Y-12802143D01*
X16490714Y-12811667D01*
X16566905Y-13011667D02*
X16576428Y-13002143D01*
X16595476Y-12973571D01*
X16605000Y-12954524D01*
X16614524Y-12925952D01*
X16624048Y-12878333D01*
X16624048Y-12840238D01*
X16614524Y-12792619D01*
X16605000Y-12764048D01*
X16595476Y-12745000D01*
X16576428Y-12716428D01*
X16566905Y-12706905D01*
D10*
X11795000Y-13109000D02*
G75*
G03*
X11795000Y-13109000I-50000J0D01*
G01*
D11*
X12157381Y-13199476D02*
X12043095Y-13199476D01*
X12100238Y-13199476D02*
X12100238Y-12999476D01*
X12081190Y-13028048D01*
X12062143Y-13047095D01*
X12043095Y-13056619D01*
X12243095Y-13180428D02*
X12252619Y-13189952D01*
X12243095Y-13199476D01*
X12233571Y-13189952D01*
X12243095Y-13180428D01*
X12243095Y-13199476D01*
X12376428Y-12999476D02*
X12395476Y-12999476D01*
X12414524Y-13009000D01*
X12424048Y-13018524D01*
X12433571Y-13037571D01*
X12443095Y-13075667D01*
X12443095Y-13123286D01*
X12433571Y-13161381D01*
X12424048Y-13180428D01*
X12414524Y-13189952D01*
X12395476Y-13199476D01*
X12376428Y-13199476D01*
X12357381Y-13189952D01*
X12347857Y-13180428D01*
X12338333Y-13161381D01*
X12328809Y-13123286D01*
X12328809Y-13075667D01*
X12338333Y-13037571D01*
X12347857Y-13018524D01*
X12357381Y-13009000D01*
X12376428Y-12999476D01*
X12566905Y-12999476D02*
X12585952Y-12999476D01*
X12605000Y-13009000D01*
X12614524Y-13018524D01*
X12624048Y-13037571D01*
X12633571Y-13075667D01*
X12633571Y-13123286D01*
X12624048Y-13161381D01*
X12614524Y-13180428D01*
X12605000Y-13189952D01*
X12585952Y-13199476D01*
X12566905Y-13199476D01*
X12547857Y-13189952D01*
X12538333Y-13180428D01*
X12528809Y-13161381D01*
X12519286Y-13123286D01*
X12519286Y-13075667D01*
X12528809Y-13037571D01*
X12538333Y-13018524D01*
X12547857Y-13009000D01*
X12566905Y-12999476D01*
X12757381Y-12999476D02*
X12776428Y-12999476D01*
X12795476Y-13009000D01*
X12805000Y-13018524D01*
X12814524Y-13037571D01*
X12824048Y-13075667D01*
X12824048Y-13123286D01*
X12814524Y-13161381D01*
X12805000Y-13180428D01*
X12795476Y-13189952D01*
X12776428Y-13199476D01*
X12757381Y-13199476D01*
X12738333Y-13189952D01*
X12728809Y-13180428D01*
X12719286Y-13161381D01*
X12709762Y-13123286D01*
X12709762Y-13075667D01*
X12719286Y-13037571D01*
X12728809Y-13018524D01*
X12738333Y-13009000D01*
X12757381Y-12999476D01*
X12909762Y-13199476D02*
X12909762Y-13066143D01*
X12909762Y-13085190D02*
X12919286Y-13075667D01*
X12938333Y-13066143D01*
X12966905Y-13066143D01*
X12985952Y-13075667D01*
X12995476Y-13094714D01*
X12995476Y-13199476D01*
X12995476Y-13094714D02*
X13005000Y-13075667D01*
X13024048Y-13066143D01*
X13052619Y-13066143D01*
X13071667Y-13075667D01*
X13081190Y-13094714D01*
X13081190Y-13199476D01*
X13176428Y-13199476D02*
X13176428Y-13066143D01*
X13176428Y-13085190D02*
X13185952Y-13075667D01*
X13205000Y-13066143D01*
X13233571Y-13066143D01*
X13252619Y-13075667D01*
X13262143Y-13094714D01*
X13262143Y-13199476D01*
X13262143Y-13094714D02*
X13271667Y-13075667D01*
X13290714Y-13066143D01*
X13319286Y-13066143D01*
X13338333Y-13075667D01*
X13347857Y-13094714D01*
X13347857Y-13199476D01*
X13738333Y-12989952D02*
X13566905Y-13247095D01*
X13995476Y-12999476D02*
X14014524Y-12999476D01*
X14033571Y-13009000D01*
X14043095Y-13018524D01*
X14052619Y-13037571D01*
X14062143Y-13075667D01*
X14062143Y-13123286D01*
X14052619Y-13161381D01*
X14043095Y-13180428D01*
X14033571Y-13189952D01*
X14014524Y-13199476D01*
X13995476Y-13199476D01*
X13976428Y-13189952D01*
X13966905Y-13180428D01*
X13957381Y-13161381D01*
X13947857Y-13123286D01*
X13947857Y-13075667D01*
X13957381Y-13037571D01*
X13966905Y-13018524D01*
X13976428Y-13009000D01*
X13995476Y-12999476D01*
X14147857Y-13180428D02*
X14157381Y-13189952D01*
X14147857Y-13199476D01*
X14138333Y-13189952D01*
X14147857Y-13180428D01*
X14147857Y-13199476D01*
X14281190Y-12999476D02*
X14300238Y-12999476D01*
X14319286Y-13009000D01*
X14328809Y-13018524D01*
X14338333Y-13037571D01*
X14347857Y-13075667D01*
X14347857Y-13123286D01*
X14338333Y-13161381D01*
X14328809Y-13180428D01*
X14319286Y-13189952D01*
X14300238Y-13199476D01*
X14281190Y-13199476D01*
X14262143Y-13189952D01*
X14252619Y-13180428D01*
X14243095Y-13161381D01*
X14233571Y-13123286D01*
X14233571Y-13075667D01*
X14243095Y-13037571D01*
X14252619Y-13018524D01*
X14262143Y-13009000D01*
X14281190Y-12999476D01*
X14414524Y-12999476D02*
X14538333Y-12999476D01*
X14471667Y-13075667D01*
X14500238Y-13075667D01*
X14519286Y-13085190D01*
X14528809Y-13094714D01*
X14538333Y-13113762D01*
X14538333Y-13161381D01*
X14528809Y-13180428D01*
X14519286Y-13189952D01*
X14500238Y-13199476D01*
X14443095Y-13199476D01*
X14424048Y-13189952D01*
X14414524Y-13180428D01*
X14633571Y-13199476D02*
X14671667Y-13199476D01*
X14690714Y-13189952D01*
X14700238Y-13180428D01*
X14719286Y-13151857D01*
X14728809Y-13113762D01*
X14728809Y-13037571D01*
X14719286Y-13018524D01*
X14709762Y-13009000D01*
X14690714Y-12999476D01*
X14652619Y-12999476D01*
X14633571Y-13009000D01*
X14624048Y-13018524D01*
X14614524Y-13037571D01*
X14614524Y-13085190D01*
X14624048Y-13104238D01*
X14633571Y-13113762D01*
X14652619Y-13123286D01*
X14690714Y-13123286D01*
X14709762Y-13113762D01*
X14719286Y-13104238D01*
X14728809Y-13085190D01*
X14900238Y-13066143D02*
X14900238Y-13199476D01*
X14852619Y-12989952D02*
X14805000Y-13132809D01*
X14928809Y-13132809D01*
X14995476Y-12999476D02*
X14995476Y-13037571D01*
X15071667Y-12999476D02*
X15071667Y-13037571D01*
X15366905Y-13275667D02*
X15357381Y-13266143D01*
X15338333Y-13237571D01*
X15328809Y-13218524D01*
X15319286Y-13189952D01*
X15309762Y-13142333D01*
X15309762Y-13104238D01*
X15319286Y-13056619D01*
X15328809Y-13028048D01*
X15338333Y-13009000D01*
X15357381Y-12980428D01*
X15366905Y-12970905D01*
X15424048Y-12999476D02*
X15547857Y-12999476D01*
X15481190Y-13075667D01*
X15509762Y-13075667D01*
X15528809Y-13085190D01*
X15538333Y-13094714D01*
X15547857Y-13113762D01*
X15547857Y-13161381D01*
X15538333Y-13180428D01*
X15528809Y-13189952D01*
X15509762Y-13199476D01*
X15452619Y-13199476D01*
X15433571Y-13189952D01*
X15424048Y-13180428D01*
X15785952Y-13199476D02*
X15785952Y-12999476D01*
X15871667Y-13199476D02*
X15871667Y-13094714D01*
X15862143Y-13075667D01*
X15843095Y-13066143D01*
X15814524Y-13066143D01*
X15795476Y-13075667D01*
X15785952Y-13085190D01*
X15995476Y-13199476D02*
X15976428Y-13189952D01*
X15966905Y-13180428D01*
X15957381Y-13161381D01*
X15957381Y-13104238D01*
X15966905Y-13085190D01*
X15976428Y-13075667D01*
X15995476Y-13066143D01*
X16024048Y-13066143D01*
X16043095Y-13075667D01*
X16052619Y-13085190D01*
X16062143Y-13104238D01*
X16062143Y-13161381D01*
X16052619Y-13180428D01*
X16043095Y-13189952D01*
X16024048Y-13199476D01*
X15995476Y-13199476D01*
X16176428Y-13199476D02*
X16157381Y-13189952D01*
X16147857Y-13170905D01*
X16147857Y-12999476D01*
X16328809Y-13189952D02*
X16309762Y-13199476D01*
X16271667Y-13199476D01*
X16252619Y-13189952D01*
X16243095Y-13170905D01*
X16243095Y-13094714D01*
X16252619Y-13075667D01*
X16271667Y-13066143D01*
X16309762Y-13066143D01*
X16328809Y-13075667D01*
X16338333Y-13094714D01*
X16338333Y-13113762D01*
X16243095Y-13132809D01*
X16414524Y-13189952D02*
X16433571Y-13199476D01*
X16471667Y-13199476D01*
X16490714Y-13189952D01*
X16500238Y-13170905D01*
X16500238Y-13161381D01*
X16490714Y-13142333D01*
X16471667Y-13132809D01*
X16443095Y-13132809D01*
X16424048Y-13123286D01*
X16414524Y-13104238D01*
X16414524Y-13094714D01*
X16424048Y-13075667D01*
X16443095Y-13066143D01*
X16471667Y-13066143D01*
X16490714Y-13075667D01*
X16566905Y-13275667D02*
X16576428Y-13266143D01*
X16595476Y-13237571D01*
X16605000Y-13218524D01*
X16614524Y-13189952D01*
X16624048Y-13142333D01*
X16624048Y-13104238D01*
X16614524Y-13056619D01*
X16605000Y-13028048D01*
X16595476Y-13009000D01*
X16576428Y-12980428D01*
X16566905Y-12970905D01*
X11695000Y-13273000D02*
X11695000Y-13473000D01*
X11595000Y-13373000D02*
X11795000Y-13373000D01*
X12138333Y-13330143D02*
X12138333Y-13463476D01*
X12090714Y-13253952D02*
X12043095Y-13396809D01*
X12166905Y-13396809D01*
X12243095Y-13444428D02*
X12252619Y-13453952D01*
X12243095Y-13463476D01*
X12233571Y-13453952D01*
X12243095Y-13444428D01*
X12243095Y-13463476D01*
X12319286Y-13263476D02*
X12443095Y-13263476D01*
X12376428Y-13339667D01*
X12405000Y-13339667D01*
X12424048Y-13349190D01*
X12433571Y-13358714D01*
X12443095Y-13377762D01*
X12443095Y-13425381D01*
X12433571Y-13444428D01*
X12424048Y-13453952D01*
X12405000Y-13463476D01*
X12347857Y-13463476D01*
X12328809Y-13453952D01*
X12319286Y-13444428D01*
X12566905Y-13263476D02*
X12585952Y-13263476D01*
X12605000Y-13273000D01*
X12614524Y-13282524D01*
X12624048Y-13301571D01*
X12633571Y-13339667D01*
X12633571Y-13387286D01*
X12624048Y-13425381D01*
X12614524Y-13444428D01*
X12605000Y-13453952D01*
X12585952Y-13463476D01*
X12566905Y-13463476D01*
X12547857Y-13453952D01*
X12538333Y-13444428D01*
X12528809Y-13425381D01*
X12519286Y-13387286D01*
X12519286Y-13339667D01*
X12528809Y-13301571D01*
X12538333Y-13282524D01*
X12547857Y-13273000D01*
X12566905Y-13263476D01*
X12757381Y-13263476D02*
X12776428Y-13263476D01*
X12795476Y-13273000D01*
X12805000Y-13282524D01*
X12814524Y-13301571D01*
X12824048Y-13339667D01*
X12824048Y-13387286D01*
X12814524Y-13425381D01*
X12805000Y-13444428D01*
X12795476Y-13453952D01*
X12776428Y-13463476D01*
X12757381Y-13463476D01*
X12738333Y-13453952D01*
X12728809Y-13444428D01*
X12719286Y-13425381D01*
X12709762Y-13387286D01*
X12709762Y-13339667D01*
X12719286Y-13301571D01*
X12728809Y-13282524D01*
X12738333Y-13273000D01*
X12757381Y-13263476D01*
X12909762Y-13463476D02*
X12909762Y-13330143D01*
X12909762Y-13349190D02*
X12919286Y-13339667D01*
X12938333Y-13330143D01*
X12966905Y-13330143D01*
X12985952Y-13339667D01*
X12995476Y-13358714D01*
X12995476Y-13463476D01*
X12995476Y-13358714D02*
X13005000Y-13339667D01*
X13024048Y-13330143D01*
X13052619Y-13330143D01*
X13071667Y-13339667D01*
X13081190Y-13358714D01*
X13081190Y-13463476D01*
X13176428Y-13463476D02*
X13176428Y-13330143D01*
X13176428Y-13349190D02*
X13185952Y-13339667D01*
X13205000Y-13330143D01*
X13233571Y-13330143D01*
X13252619Y-13339667D01*
X13262143Y-13358714D01*
X13262143Y-13463476D01*
X13262143Y-13358714D02*
X13271667Y-13339667D01*
X13290714Y-13330143D01*
X13319286Y-13330143D01*
X13338333Y-13339667D01*
X13347857Y-13358714D01*
X13347857Y-13463476D01*
X13738333Y-13253952D02*
X13566905Y-13511095D01*
X13995476Y-13263476D02*
X14014524Y-13263476D01*
X14033571Y-13273000D01*
X14043095Y-13282524D01*
X14052619Y-13301571D01*
X14062143Y-13339667D01*
X14062143Y-13387286D01*
X14052619Y-13425381D01*
X14043095Y-13444428D01*
X14033571Y-13453952D01*
X14014524Y-13463476D01*
X13995476Y-13463476D01*
X13976428Y-13453952D01*
X13966905Y-13444428D01*
X13957381Y-13425381D01*
X13947857Y-13387286D01*
X13947857Y-13339667D01*
X13957381Y-13301571D01*
X13966905Y-13282524D01*
X13976428Y-13273000D01*
X13995476Y-13263476D01*
X14147857Y-13444428D02*
X14157381Y-13453952D01*
X14147857Y-13463476D01*
X14138333Y-13453952D01*
X14147857Y-13444428D01*
X14147857Y-13463476D01*
X14347857Y-13463476D02*
X14233571Y-13463476D01*
X14290714Y-13463476D02*
X14290714Y-13263476D01*
X14271667Y-13292048D01*
X14252619Y-13311095D01*
X14233571Y-13320619D01*
X14519286Y-13263476D02*
X14481190Y-13263476D01*
X14462143Y-13273000D01*
X14452619Y-13282524D01*
X14433571Y-13311095D01*
X14424048Y-13349190D01*
X14424048Y-13425381D01*
X14433571Y-13444428D01*
X14443095Y-13453952D01*
X14462143Y-13463476D01*
X14500238Y-13463476D01*
X14519286Y-13453952D01*
X14528809Y-13444428D01*
X14538333Y-13425381D01*
X14538333Y-13377762D01*
X14528809Y-13358714D01*
X14519286Y-13349190D01*
X14500238Y-13339667D01*
X14462143Y-13339667D01*
X14443095Y-13349190D01*
X14433571Y-13358714D01*
X14424048Y-13377762D01*
X14633571Y-13463476D02*
X14671667Y-13463476D01*
X14690714Y-13453952D01*
X14700238Y-13444428D01*
X14719286Y-13415857D01*
X14728809Y-13377762D01*
X14728809Y-13301571D01*
X14719286Y-13282524D01*
X14709762Y-13273000D01*
X14690714Y-13263476D01*
X14652619Y-13263476D01*
X14633571Y-13273000D01*
X14624048Y-13282524D01*
X14614524Y-13301571D01*
X14614524Y-13349190D01*
X14624048Y-13368238D01*
X14633571Y-13377762D01*
X14652619Y-13387286D01*
X14690714Y-13387286D01*
X14709762Y-13377762D01*
X14719286Y-13368238D01*
X14728809Y-13349190D01*
X14795476Y-13263476D02*
X14919286Y-13263476D01*
X14852619Y-13339667D01*
X14881190Y-13339667D01*
X14900238Y-13349190D01*
X14909762Y-13358714D01*
X14919286Y-13377762D01*
X14919286Y-13425381D01*
X14909762Y-13444428D01*
X14900238Y-13453952D01*
X14881190Y-13463476D01*
X14824048Y-13463476D01*
X14805000Y-13453952D01*
X14795476Y-13444428D01*
X14995476Y-13263476D02*
X14995476Y-13301571D01*
X15071667Y-13263476D02*
X15071667Y-13301571D01*
X15366905Y-13539667D02*
X15357381Y-13530143D01*
X15338333Y-13501571D01*
X15328809Y-13482524D01*
X15319286Y-13453952D01*
X15309762Y-13406333D01*
X15309762Y-13368238D01*
X15319286Y-13320619D01*
X15328809Y-13292048D01*
X15338333Y-13273000D01*
X15357381Y-13244428D01*
X15366905Y-13234905D01*
X15547857Y-13463476D02*
X15433571Y-13463476D01*
X15490714Y-13463476D02*
X15490714Y-13263476D01*
X15471667Y-13292048D01*
X15452619Y-13311095D01*
X15433571Y-13320619D01*
X15785952Y-13463476D02*
X15785952Y-13263476D01*
X15871667Y-13463476D02*
X15871667Y-13358714D01*
X15862143Y-13339667D01*
X15843095Y-13330143D01*
X15814524Y-13330143D01*
X15795476Y-13339667D01*
X15785952Y-13349190D01*
X15995476Y-13463476D02*
X15976428Y-13453952D01*
X15966905Y-13444428D01*
X15957381Y-13425381D01*
X15957381Y-13368238D01*
X15966905Y-13349190D01*
X15976428Y-13339667D01*
X15995476Y-13330143D01*
X16024048Y-13330143D01*
X16043095Y-13339667D01*
X16052619Y-13349190D01*
X16062143Y-13368238D01*
X16062143Y-13425381D01*
X16052619Y-13444428D01*
X16043095Y-13453952D01*
X16024048Y-13463476D01*
X15995476Y-13463476D01*
X16176428Y-13463476D02*
X16157381Y-13453952D01*
X16147857Y-13434905D01*
X16147857Y-13263476D01*
X16328809Y-13453952D02*
X16309762Y-13463476D01*
X16271667Y-13463476D01*
X16252619Y-13453952D01*
X16243095Y-13434905D01*
X16243095Y-13358714D01*
X16252619Y-13339667D01*
X16271667Y-13330143D01*
X16309762Y-13330143D01*
X16328809Y-13339667D01*
X16338333Y-13358714D01*
X16338333Y-13377762D01*
X16243095Y-13396809D01*
X16405000Y-13539667D02*
X16414524Y-13530143D01*
X16433571Y-13501571D01*
X16443095Y-13482524D01*
X16452619Y-13453952D01*
X16462143Y-13406333D01*
X16462143Y-13368238D01*
X16452619Y-13320619D01*
X16443095Y-13292048D01*
X16433571Y-13273000D01*
X16414524Y-13244428D01*
X16405000Y-13234905D01*
M02*
